<?xml version="1.0" encoding="utf-8"?>
<svg viewBox="0 0 380 400"
  xmlns="http://www.w3.org/2000/svg"
  xmlns:bx="https://boxy-svg.com">
  <desc>
    (c) 2024 @iseohyun.com 
    All rights reserved.
    CC-BY-SA
  </desc>
  <title>애니메이션 예제</title>
  <g style="fill: #ddd; stroke: black">
    <path d="M 100 15 L 139 42 L 124 86 L 76 86 L 61 42 Z">
      <animateMotion path="M 0 0 C 0 0 35 23 54 22 C 71 21 100 0 100 0" calcMode="ease" dur="2s" repeatCount="indefinite"/>
    </path>
    <path style="fill: none;" d="M 100 53 C 100 53 135 76 154 75 C 171 74 200 53 200 53"/>

    <path d="M 100 105 L 139 132 L 124 176 L 76 176 L 61 132 Z" style="transform-origin: 100px 140px;">
      <animateTransform type="scale" attributeName="transform" values="1; 2" dur="2s" repeatCount="indefinite"/>
    </path>

    <path d="M 100 190 L 139 217 L 124 261 L 76 261 L 61 217 Z" style="transform-origin: 100px 225px;">
      <animateTransform type="rotate" attributeName="transform" values="0;270" dur="2s" repeatCount="indefinite" />
    </path>

    <path d="M 100 285 L 139 312 L 124 356 L 76 356 L 61 312 Z">
      <animateTransform type="translate" attributeName="transform" values="0 0;-30 -10; 30 10" dur="2s" keyTimes="0;0.3;1" repeatCount="indefinite"/>
    </path>

    <path d="M 310 15 L 349 42 L 334 86 L 286 86 L 271 42 Z" style="transform-origin: 310px 50.5px;">
      <animateTransform type="skewX" attributeName="transform" values="0; 180" dur="2s" repeatCount="indefinite"/>
    </path>

    <path d="M 310 105 L 349 132 L 334 176 L 286 176 L 271 132 Z">
      <animate attributeName="stroke" values="black; red" dur="2s" repeatCount="indefinite"/>
      <animate attributeName="fill" values="#ddd; #0f8" dur="2s" repeatCount="indefinite"/>
    </path>

    <path d="M 310 190 L 349 217 L 334 261 L 286 261 L 271 217 Z" style="stroke-dasharray: 240; stroke-dashoffset: -240px;">
      <animate attributeName="stroke-dashoffset" values="0px; 240px" dur="2s" repeatCount="indefinite"/>
    </path>

    <rect x="251" y="288" width="50" height="50" style="fill:red"/>
    <path d="M 310 285 L 349 312 L 334 356 L 286 356 L 271 312 Z">
      <animate attributeName="opacity" values="1; 0.5" dur="2s" repeatCount="indefinite"/>
    </path>
  </g>
  <g style=" font-family: Arial, sans-serif; font-size: 16.7px;">
    <text x="45" y="57">animateMotion</text>
    <text x="80" y="148">scale</text>
    <text x="78" y="233">rotate</text>
    <text x="68" y="328">translate</text>
    <text x="288" y="59">skewX</text>
    <text x="300" y="135">fill</text>
    <text x="287" y="157">stroke</text>
    <text x="246" y="237">stroke-dashoffset</text>
    <text x="285" y="325">opacity</text>
  </g>
</svg>